<?xml version="1.0" standalone="no"?>
<!DOCTYPE svg PUBLIC "-//W3C//DTD SVG 20010904//EN"
 "http://www.w3.org/TR/2001/REC-SVG-20010904/DTD/svg10.dtd">
<svg version="1.0" xmlns="http://www.w3.org/2000/svg"
 width="800.000000pt" height="800.000000pt" viewBox="0 0 800.000000 800.000000"
 preserveAspectRatio="xMidYMid meet">
<metadata>
Created by potrace 1.14, written by Peter Selinger 2001-2017
</metadata>
<g transform="translate(0.000000,800.000000) scale(0.100000,-0.100000)"
fill="#000000" stroke="none">
<path d="M4129 7880 c-31 -9 -63 -21 -70 -26 -8 -5 -17 -9 -20 -9 -4 0 -33
-21 -65 -46 -69 -53 -125 -130 -156 -214 -22 -60 -22 -64 -23 -782 -1 -398 -4
-725 -6 -728 -3 -2 -341 -5 -752 -5 -697 -1 -750 -2 -799 -19 -123 -42 -209
-108 -267 -205 -70 -117 -69 -95 -68 -944 0 -753 1 -763 22 -830 52 -163 185
-281 356 -318 13 -2 358 -5 767 -5 l742 -1 1 -22 c2 -111 0 -1308 -3 -1312 -3
-2 -337 -4 -744 -4 -818 -1 -802 1 -911 -65 -75 -45 -115 -83 -157 -148 -75
-117 -71 -64 -74 -915 -2 -496 1 -784 8 -820 29 -159 151 -299 309 -352 61
-20 73 -20 849 -18 l788 3 77 38 c132 65 227 185 255 322 7 31 11 306 11 738
0 378 0 695 1 705 0 18 29 19 723 19 397 0 747 3 777 7 164 19 329 168 374
337 21 78 23 1548 2 1624 -48 183 -199 324 -371 348 -22 4 -370 6 -772 7
l-733 0 0 668 0 669 743 0 c516 1 757 4 791 12 162 38 301 175 346 340 8 32
11 253 11 805 0 418 -2 770 -5 781 -22 104 -63 181 -136 253 -56 55 -153 107
-226 122 -28 5 -367 9 -794 8 -678 0 -750 -2 -801 -18z m1481 -594 c1 -162 1
-985 0 -1113 l0 -103 -665 0 c-366 0 -666 3 -666 8 -3 18 -5 1308 -2 1318 3 7
212 10 668 10 l665 1 0 -121z m-1890 -1730 c1 -12 2 -312 3 -669 l2 -647 -670
0 -671 0 2 668 c0 367 2 667 3 668 0 0 300 1 666 1 l665 0 0 -21z m1890 -2477
l0 -669 -670 0 -670 0 0 663 c0 365 3 666 6 669 3 3 304 6 670 6 l664 0 0
-669z m-1894 -1831 l1 -668 -309 0 c-169 -1 -346 -1 -393 -1 -47 0 -209 0
-360 1 l-275 0 0 668 0 669 668 -1 667 -1 1 -667z"/>
</g>
</svg>
