<?xml version="1.0" encoding="UTF-8"?><svg id="Layer_1" xmlns="http://www.w3.org/2000/svg" viewBox="0 0 330.71 135.02"><defs><style>.cls-1{fill:#f60;fill-rule:evenodd;}</style></defs><g><path d="M93.08,56.04h-3.91c-3.3,0-4.86,1.91-4.86,5.12v5.12h8.77v6.77h-8.77v37.23h-8.85v-37.23h-5.03v-6.77h5.03v-5.55c0-6.34,3.82-12.24,12.06-12.24h5.55v7.55Zm18.05,1.56h-9.37v-9.37h9.37v9.37Zm-.26,52.68h-8.85v-44h8.85v44Z"/><path d="M156.17,69.76c3.38,3.3,4.43,7.46,4.43,12.41v28.12h-8.85v-26.82c0-6.86-3.91-9.81-8.85-9.81s-9.11,3.04-9.11,9.81v26.82h-8.85v-44h8.68v4.43c3.04-3.3,7.29-4.95,11.72-4.95s8.25,1.48,10.85,3.99Z"/><path d="M206.6,80.87v29.42h-8.68v-3.99c-3.21,3.21-6.25,4.51-11.72,4.51s-9.11-1.3-11.8-3.99c-2.26-2.34-3.47-5.73-3.47-9.46,0-7.38,5.12-12.67,15.28-12.67h11.54v-3.12c0-5.64-2.69-8.25-9.63-8.25-4.69,0-7.12,1.21-9.63,4.34l-5.73-5.47c4.08-4.86,8.33-6.42,15.71-6.42,12.15,0,18.14,5.21,18.14,15.1Zm-19.01,9.98c-5.38,0-8.07,2.26-8.07,6.34s2.52,6.25,8.33,6.25c3.12,0,5.64-.35,7.99-2.52,1.39-1.3,1.91-3.38,1.91-6.51v-3.56h-10.15Z"/><path d="M252.25,71.93l-6.08,5.9c-2.78-3.04-4.95-4.17-8.42-4.17s-6.25,1.39-8.16,3.91c-1.91,2.43-2.6,5.55-2.6,10.68s.69,8.33,2.6,10.76c1.91,2.52,4.77,3.91,8.16,3.91s5.64-1.13,8.42-4.17l6.08,5.81c-4.17,4.43-8.42,6.25-14.49,6.25-9.89,0-19.62-6.08-19.62-22.57s9.72-22.48,19.62-22.48c6.08,0,10.33,1.74,14.49,6.16Z"/><path d="M272.39,66.29h8.5v6.77h-8.5v24.56c0,3.3,1.56,5.12,4.86,5.12h3.64v7.55h-5.29c-8.25,0-12.06-5.82-12.06-12.24v-25h-5.03v-6.77h5.03v-12.58h8.85v12.58Z"/></g><path d="M324.12,80.87v29.42h-8.68v-3.99c-3.21,3.21-6.25,4.51-11.72,4.51s-9.11-1.3-11.8-3.99c-2.26-2.34-3.47-5.73-3.47-9.46,0-7.38,5.12-12.67,15.28-12.67h11.54v-3.12c0-5.64-2.69-8.25-9.63-8.25-4.69,0-7.12,1.21-9.63,4.34l-5.73-5.47c4.08-4.86,8.33-6.42,15.71-6.42,12.15,0,18.14,5.21,18.14,15.1Zm-19.01,9.98c-5.38,0-8.07,2.26-8.07,6.34s2.52,6.25,8.33,6.25c3.12,0,5.64-.35,7.99-2.52,1.39-1.3,1.91-3.38,1.91-6.51v-3.56h-10.15Z"/><path class="cls-1" d="M21.25,48.72h20.59c2.85,0,5.18-2.33,5.18-5.18v-15.69c0-2.85-2.33-5.18-5.18-5.18h-15.42c-2.85,0-5.18,2.33-5.18,5.18v20.86Zm20.39-5.52h-15.01v-15.01h15.01v15.01Z"/><path class="cls-1" d="M25.8,69.25H5.21c-2.85,0-5.18-2.33-5.18-5.18v-15.69c0-2.85,2.33-5.18,5.18-5.18H25.8v26.04Zm-20.39-5.52h15.01v-15.01H5.42v15.01Z"/><path class="cls-1" d="M25.77,84.25H5.18c-2.85,0-5.18,2.33-5.18,5.18v15.69c0,2.85,2.33,5.18,5.18,5.18h15.42c2.85,0,5.18-2.33,5.18-5.18v-20.86Zm-20.39,5.52h15.01v15.01H5.38v-15.01Z"/><path class="cls-1" d="M21.22,63.73h20.59c2.85,0,5.18,2.33,5.18,5.18v15.69c0,2.85-2.33,5.18-5.18,5.18H21.22v-26.04Zm20.39,5.52h-15.01v15.01h15.01v-15.01Z"/><g><path d="M72.63,4.95c1.22-.2,2.81-.38,4.84-.38,2.49,0,4.32,.58,5.48,1.62,1.07,.93,1.71,2.35,1.71,4.09s-.52,3.16-1.51,4.18c-1.33,1.42-3.51,2.15-5.98,2.15-.75,0-1.45-.03-2.03-.17v7.83h-2.52V4.95Zm2.52,9.43c.55,.15,1.25,.2,2.09,.2,3.05,0,4.9-1.48,4.9-4.18s-1.83-3.83-4.61-3.83c-1.1,0-1.94,.09-2.38,.2v7.6Z"/><path d="M100.41,17.14c0,5.19-3.6,7.45-6.99,7.45-3.8,0-6.73-2.78-6.73-7.22,0-4.7,3.07-7.45,6.96-7.45s6.76,2.93,6.76,7.22Zm-11.14,.15c0,3.07,1.77,5.4,4.26,5.4s4.26-2.29,4.26-5.45c0-2.38-1.19-5.4-4.21-5.4s-4.32,2.78-4.32,5.45Z"/><path d="M104.91,10.23l1.86,7.14c.41,1.57,.78,3.02,1.04,4.47h.09c.32-1.42,.78-2.93,1.25-4.44l2.29-7.17h2.15l2.18,7.02c.52,1.68,.93,3.16,1.25,4.58h.09c.23-1.42,.61-2.9,1.07-4.55l2-7.05h2.52l-4.52,14.04h-2.32l-2.15-6.7c-.49-1.57-.9-2.96-1.25-4.61h-.06c-.35,1.68-.78,3.13-1.28,4.64l-2.26,6.67h-2.32l-4.24-14.04h2.61Z"/><path d="M126.83,17.72c.06,3.45,2.26,4.87,4.81,4.87,1.83,0,2.93-.32,3.89-.73l.44,1.83c-.9,.41-2.44,.87-4.67,.87-4.32,0-6.9-2.84-6.9-7.08s2.49-7.57,6.58-7.57c4.58,0,5.8,4.03,5.8,6.61,0,.52-.06,.93-.09,1.19h-9.86Zm7.48-1.83c.03-1.62-.67-4.15-3.54-4.15-2.58,0-3.71,2.38-3.92,4.15h7.45Z"/><path d="M140.4,14.61c0-1.65-.03-3.07-.12-4.38h2.23l.09,2.76h.12c.64-1.89,2.18-3.07,3.89-3.07,.29,0,.49,.03,.73,.09v2.41c-.26-.06-.52-.09-.87-.09-1.8,0-3.08,1.36-3.42,3.28-.06,.35-.12,.75-.12,1.19v7.48h-2.52V14.61Z"/><path d="M151.48,17.72c.06,3.45,2.26,4.87,4.81,4.87,1.83,0,2.93-.32,3.89-.73l.44,1.83c-.9,.41-2.44,.87-4.67,.87-4.32,0-6.9-2.84-6.9-7.08s2.49-7.57,6.58-7.57c4.58,0,5.8,4.03,5.8,6.61,0,.52-.06,.93-.09,1.19h-9.86Zm7.48-1.83c.03-1.62-.67-4.15-3.54-4.15-2.58,0-3.71,2.38-3.92,4.15h7.45Z"/><path d="M177.18,3.68V20.65c0,1.25,.03,2.67,.12,3.63h-2.29l-.12-2.44h-.06c-.78,1.57-2.49,2.76-4.79,2.76-3.39,0-6-2.87-6-7.14-.03-4.67,2.87-7.54,6.29-7.54,2.15,0,3.6,1.02,4.24,2.15h.06V3.68h2.55Zm-2.55,12.27c0-.32-.03-.75-.12-1.07-.38-1.62-1.77-2.96-3.68-2.96-2.64,0-4.21,2.32-4.21,5.42,0,2.84,1.39,5.19,4.15,5.19,1.71,0,3.28-1.13,3.74-3.05,.09-.35,.12-.7,.12-1.1v-2.44Z"/><path d="M188.37,24.27c.06-.96,.12-2.38,.12-3.63V3.68h2.52V12.5h.06c.9-1.57,2.52-2.58,4.79-2.58,3.48,0,5.95,2.9,5.92,7.16,0,5.02-3.16,7.51-6.29,7.51-2.03,0-3.66-.78-4.7-2.64h-.09l-.12,2.32h-2.21Zm2.64-5.63c0,.32,.06,.64,.12,.93,.49,1.77,1.97,2.99,3.83,2.99,2.67,0,4.26-2.18,4.26-5.4,0-2.81-1.45-5.22-4.18-5.22-1.74,0-3.37,1.19-3.89,3.13-.06,.29-.15,.64-.15,1.04v2.52Z"/><path d="M206.17,10.23l3.07,8.3c.32,.93,.67,2.03,.9,2.87h.06c.26-.84,.55-1.91,.9-2.93l2.79-8.24h2.7l-3.83,10.01c-1.83,4.81-3.07,7.28-4.81,8.79-1.25,1.1-2.5,1.54-3.13,1.65l-.64-2.15c.64-.2,1.48-.61,2.23-1.25,.7-.55,1.57-1.54,2.15-2.84,.12-.26,.2-.46,.2-.61s-.06-.35-.17-.67l-5.19-12.94h2.79Z"/></g></svg>