<?xml version="1.0" encoding="UTF-8"?><svg id="Layer_1" xmlns="http://www.w3.org/2000/svg" viewBox="0 0 324.12 88.13"><defs><style>.cls-1{fill:#f60;fill-rule:evenodd;}</style></defs><g><path d="M93.08,33.36h-3.91c-3.3,0-4.86,1.91-4.86,5.12v5.12h8.77v6.77h-8.77v37.23h-8.85V50.37h-5.03v-6.77h5.03v-5.55c0-6.34,3.82-12.24,12.06-12.24h5.55v7.55Zm18.05,1.56h-9.37v-9.37h9.37v9.37Zm-.26,52.68h-8.85V43.6h8.85v44Z"/><path d="M156.17,47.07c3.38,3.3,4.43,7.46,4.43,12.41v28.12h-8.85v-26.82c0-6.86-3.91-9.81-8.85-9.81s-9.11,3.04-9.11,9.81v26.82h-8.85V43.6h8.68v4.43c3.04-3.3,7.29-4.95,11.72-4.95s8.25,1.48,10.85,3.99Z"/><path d="M206.6,58.18v29.42h-8.68v-3.99c-3.21,3.21-6.25,4.51-11.72,4.51s-9.11-1.3-11.8-3.99c-2.26-2.34-3.47-5.73-3.47-9.46,0-7.38,5.12-12.67,15.28-12.67h11.54v-3.12c0-5.64-2.69-8.25-9.63-8.25-4.69,0-7.12,1.21-9.63,4.34l-5.73-5.47c4.08-4.86,8.33-6.42,15.71-6.42,12.15,0,18.14,5.21,18.14,15.1Zm-19.01,9.98c-5.38,0-8.07,2.26-8.07,6.34s2.52,6.25,8.33,6.25c3.12,0,5.64-.35,7.99-2.52,1.39-1.3,1.91-3.38,1.91-6.51v-3.56h-10.15Z"/><path d="M252.25,49.24l-6.08,5.9c-2.78-3.04-4.95-4.17-8.42-4.17s-6.25,1.39-8.16,3.91c-1.91,2.43-2.6,5.55-2.6,10.68s.69,8.33,2.6,10.76c1.91,2.52,4.77,3.91,8.16,3.91s5.64-1.13,8.42-4.17l6.08,5.81c-4.17,4.43-8.42,6.25-14.49,6.25-9.89,0-19.62-6.08-19.62-22.57s9.72-22.48,19.62-22.48c6.08,0,10.33,1.74,14.49,6.16Z"/><path d="M272.39,43.6h8.5v6.77h-8.5v24.56c0,3.3,1.56,5.12,4.86,5.12h3.64v7.55h-5.29c-8.25,0-12.06-5.82-12.06-12.24v-25h-5.03v-6.77h5.03v-12.58h8.85v12.58Z"/></g><path d="M324.12,58.18v29.42h-8.68v-3.99c-3.21,3.21-6.25,4.51-11.72,4.51s-9.11-1.3-11.8-3.99c-2.26-2.34-3.47-5.73-3.47-9.46,0-7.38,5.12-12.67,15.28-12.67h11.54v-3.12c0-5.64-2.69-8.25-9.63-8.25-4.69,0-7.12,1.21-9.63,4.34l-5.73-5.47c4.08-4.86,8.33-6.42,15.71-6.42,12.15,0,18.14,5.21,18.14,15.1Zm-19.01,9.98c-5.38,0-8.07,2.26-8.07,6.34s2.52,6.25,8.33,6.25c3.12,0,5.64-.35,7.99-2.52,1.39-1.3,1.91-3.38,1.91-6.51v-3.56h-10.15Z"/><path class="cls-1" d="M21.25,26.04h20.59c2.85,0,5.18-2.33,5.18-5.18V5.18c0-2.85-2.33-5.18-5.18-5.18h-15.42c-2.85,0-5.18,2.33-5.18,5.18V26.04Zm20.39-5.52h-15.01V5.52h15.01v15.01Z"/><path class="cls-1" d="M25.8,46.56H5.21C2.36,46.56,.03,44.24,.03,41.39v-15.69c0-2.85,2.33-5.18,5.18-5.18H25.8v26.04Zm-20.39-5.52h15.01v-15.01H5.42v15.01Z"/><path class="cls-1" d="M25.77,61.57H5.18c-2.85,0-5.18,2.33-5.18,5.18v15.69c0,2.85,2.33,5.18,5.18,5.18h15.42c2.85,0,5.18-2.33,5.18-5.18v-20.86Zm-20.39,5.52h15.01v15.01H5.38v-15.01Z"/><path class="cls-1" d="M21.22,41.04h20.59c2.85,0,5.18,2.33,5.18,5.18v15.69c0,2.85-2.33,5.18-5.18,5.18H21.22v-26.04Zm20.39,5.52h-15.01v15.01h15.01v-15.01Z"/></svg>