<?xml version="1.0" encoding="UTF-8"?><svg id="Layer_1" xmlns="http://www.w3.org/2000/svg" viewBox="0 0 47.02 87.61"><defs><style>.cls-1{fill:#fff;fill-rule:evenodd;}</style></defs><path class="cls-1" d="M21.25,26.04h20.59c2.85,0,5.18-2.33,5.18-5.18V5.18c0-2.85-2.33-5.18-5.18-5.18h-15.42c-2.85,0-5.18,2.33-5.18,5.18V26.04Zm20.39-5.52h-15.01V5.52h15.01v15.01Z"/><path class="cls-1" d="M25.8,46.56H5.21C2.36,46.56,.03,44.24,.03,41.39v-15.69c0-2.85,2.33-5.18,5.18-5.18H25.8v26.04Zm-20.39-5.52h15.01v-15.01H5.42v15.01Z"/><path class="cls-1" d="M25.77,61.57H5.18c-2.85,0-5.18,2.33-5.18,5.18v15.69c0,2.85,2.33,5.18,5.18,5.18h15.42c2.85,0,5.18-2.33,5.18-5.18v-20.86Zm-20.39,5.52h15.01v15.01H5.38v-15.01Z"/><path class="cls-1" d="M21.22,41.04h20.59c2.85,0,5.18,2.33,5.18,5.18v15.69c0,2.85-2.33,5.18-5.18,5.18H21.22v-26.04Zm20.39,5.52h-15.01v15.01h15.01v-15.01Z"/></svg>